PathFileType	4	(X/Y/Z)	 s02c0303.trc
DataRate	CameraRate	NumFrames	NumMarkers	Units	OrigDataRate	OrigDataStartFrame	OrigNumFrames
200	200	5	50	mm	200	501	2000
Frame#	Time	racr			lacr			c7			jug			rlel			rdr			llel			ldr			s2			lic			ric			lasi			rasi			rpsi			lpsi			rgt			lgt			rth1			rth2			rth3			rth4			rlfc			rmfc			rsh1			rsh2			rsh3			rsh4			rlmal			rmmal			rtoe			rmt5			rmt1			lth1			lth2			lth4			lth3			llfc			lmfc			lsh1			lsh2			lsh3			lsh4			llmal			lmmal			lcal			ltoe			lmt5			SBIKE			LBIKE			RBIKE			
		X1	Y1	Z1	X2	Y2	Z2	X3	Y3	Z3	X4	Y4	Z4	X5	Y5	Z5	X6	Y6	Z6	X7	Y7	Z7	X8	Y8	Z8	X9	Y9	Z9	X10	Y10	Z10	X11	Y11	Z11	X12	Y12	Z12	X13	Y13	Z13	X14	Y14	Z14	X15	Y15	Z15	X16	Y16	Z16	X17	Y17	Z17	X18	Y18	Z18	X19	Y19	Z19	X20	Y20	Z20	X21	Y21	Z21	X22	Y22	Z22	X23	Y23	Z23	X24	Y24	Z24	X25	Y25	Z25	X26	Y26	Z26	X27	Y27	Z27	X28	Y28	Z28	X29	Y29	Z29	X30	Y30	Z30	X31	Y31	Z31	X32	Y32	Z32	X33	Y33	Z33	X34	Y34	Z34	X35	Y35	Z35	X36	Y36	Z36	X37	Y37	Z37	X38	Y38	Z38	X39	Y39	Z39	X40	Y40	Z40	X41	Y41	Z41	X42	Y42	Z42	X43	Y43	Z43	X44	Y44	Z44	X45	Y45	Z45	X46	Y46	Z46	X47	Y47	Z47	X48	Y48	Z48	X49	Y49	Z49	X50	Y50	Z50	
501	2.5050	647.993126	1279.206245	-78.117612	739.124684	1248.913229	-411.240509	696.842822	1297.375330	-250.980601	614.275958	1181.703299	-249.199655	566.165122	1010.545966	-61.939836	723.654007	866.850122	-109.797719	622.318514	1032.273305	-570.835753	723.983109	846.593349	-502.718155	166.414548	1217.807600	-377.355641	317.943194	1152.452016	-486.265116	253.959212	1213.579444	-207.408779	345.246768	1113.848693	-444.207899	307.576816	1183.450437	-228.326193	179.123878	1251.937542	-342.676513	208.418907	1237.562032	-420.866187	219.734772	1141.777783	-161.747448	248.494814	1067.552755	-511.284792	301.363628	1096.301036	-150.223614	380.725256	1057.668003	-146.541001	430.612146	994.469651	-116.713938	401.467397	1076.318005	-172.654124	518.626340	869.774882	-139.418978	514.894963	850.627355	-251.048685	484.300438	760.159448	-124.134213	454.270567	677.361181	-145.674714	393.914330	617.545561	-141.421957	466.984528	674.419063	-182.718470	319.336473	522.900142	-148.493334	327.937433	541.676862	-229.305122	526.946416	463.822392	-182.578814	417.646845	449.704486	-123.296318	444.968975	464.970906	-232.277391	319.708606	951.055580	-514.780823	366.736967	877.708358	-507.618586	396.533194	888.856022	-488.413083	368.954532	788.933055	-502.927226	390.941350	692.228021	-478.957120	380.682737	665.087710	-377.166298	342.527824	599.609455	-503.245386	315.053609	519.356480	-488.810665	249.332853	457.327135	-496.611901	328.285677	512.592330	-450.116585	176.894491	369.874241	-486.496594	190.916116	355.672157	-408.510897	101.333049	375.872391	-444.794199	275.298599	146.515257	-435.575269	192.325974	210.475726	-501.056441	-125.550416	872.452531	-306.478035	37.296236	87.262188	-514.032025	33.512436	83.669010	-114.555101	
502	2.5100	647.560151	1277.140079	-76.694143	740.251989	1248.498284	-409.862213	697.546511	1295.916876	-249.281127	614.128299	1180.848176	-248.564019	565.331765	1009.120733	-61.780071	723.364515	866.759718	-110.222025	623.209572	1032.746475	-570.728157	723.353461	846.518385	-501.984500	167.743750	1217.938179	-377.766561	319.134222	1152.937660	-487.094473	255.482279	1212.219928	-207.655583	346.205801	1113.995533	-445.177305	305.753124	1181.350309	-234.149030	180.786097	1251.935328	-342.804648	209.592056	1238.273838	-420.952412	220.814523	1140.223463	-162.651994	250.106222	1067.736820	-512.642648	302.107424	1093.964309	-150.763007	381.018964	1054.649734	-147.093345	430.266893	990.826913	-117.337324	402.227262	1073.372270	-172.730490	517.849022	865.980930	-140.266909	514.410354	847.133226	-252.085398	484.437298	756.127473	-124.755722	455.612200	672.913678	-145.936202	395.954629	612.262053	-141.744173	468.415475	669.896747	-182.955869	322.087717	516.904873	-148.400191	331.031790	535.250874	-229.666736	530.660379	459.291638	-182.341237	421.376227	443.425341	-124.106370	448.756010	459.773158	-232.200764	322.828370	951.542127	-514.322669	370.852098	878.979104	-506.981125	400.534866	890.589755	-487.976663	374.124164	790.289181	-501.623859	396.482595	693.682987	-477.859119	385.247867	666.968714	-375.593067	346.534655	601.405423	-502.011558	317.068627	521.776113	-487.538121	250.099870	461.247437	-495.534789	330.050956	514.860916	-448.852389	175.410470	375.326633	-485.806046	188.954085	360.852146	-407.674593	100.146910	382.388420	-444.960197	270.681300	150.471253	-435.552493	188.655561	215.641222	-500.795879	-125.458908	872.506700	-306.314082	37.301548	87.366991	-513.999490	33.499156	83.680700	-114.517461	
503	2.5150	647.132274	1275.102837	-75.220770	741.447517	1248.133137	-408.366572	698.306258	1294.642558	-247.531187	614.058389	1180.178988	-248.001304	564.159441	1007.650521	-62.011146	723.028947	866.773403	-110.440930	624.244163	1033.331469	-570.566580	723.000875	846.464958	-501.486185	169.095950	1217.826893	-378.191257	320.318525	1153.312109	-487.831846	257.591077	1210.440425	-207.114337	347.191381	1114.111205	-446.215922	307.356028	1179.884976	-234.567874	182.951667	1250.126251	-343.632399	211.168102	1238.649421	-421.485153	222.119165	1138.319440	-163.562949	251.639362	1067.906231	-513.984072	303.025430	1091.228212	-151.220328	381.460138	1051.180725	-147.559892	430.028055	986.868050	-117.835232	403.035067	1070.101762	-172.685302	517.023972	861.863983	-141.152037	513.073492	842.537070	-252.768946	484.555936	751.789638	-125.337340	456.847484	668.104911	-146.271597	397.873639	606.727502	-142.102716	468.612218	664.586560	-183.445169	325.371853	510.309442	-148.979082	333.760236	528.808654	-229.867357	534.167038	454.512360	-181.961820	424.995180	437.836063	-124.067720	452.308104	454.442141	-232.001454	326.052991	952.061325	-514.281501	374.879791	880.140453	-506.225894	404.455335	892.185381	-487.519771	379.093885	791.587992	-500.170857	401.796465	695.120389	-476.683253	389.665557	668.722027	-374.458413	350.373406	603.008906	-500.919800	319.190606	524.189210	-486.422880	250.919776	465.080902	-494.662900	331.974193	517.130810	-447.772263	174.182797	380.801629	-485.096303	187.339318	365.899883	-406.921575	98.860807	388.409562	-444.405270	266.240582	154.331005	-435.509002	185.261949	220.772680	-500.512934	-125.374464	872.554938	-306.156143	37.294795	87.499119	-513.932632	33.516224	83.691143	-114.517823	
504	2.5200	646.758508	1273.185056	-73.795693	742.698484	1247.893759	-406.972245	699.092002	1293.400371	-245.774917	613.993402	1179.576572	-247.385425	562.841312	1006.132197	-62.438318	722.770522	866.716311	-110.574849	625.268596	1033.903807	-570.412408	722.968679	846.433100	-501.262037	170.486964	1217.492270	-378.446242	321.498694	1153.708644	-488.549538	259.301248	1208.718528	-207.144292	348.233504	1114.121242	-447.211891	309.017368	1178.232134	-234.960440	183.612975	1250.196459	-343.616650	212.682615	1238.825172	-421.936195	223.531542	1136.082066	-164.554816	253.198163	1067.934976	-515.325451	304.067523	1088.459019	-151.589418	382.032420	1047.587378	-147.997693	429.905805	982.698786	-118.358547	403.967760	1066.646568	-172.626506	516.195508	857.395853	-142.044664	512.872650	838.241427	-253.162217	484.521720	747.034297	-125.937181	456.762207	662.528180	-146.748523	399.743862	600.911405	-142.432919	469.807544	659.318870	-184.083356	328.086988	503.949435	-149.096264	336.477462	522.250979	-230.038411	537.493354	449.520526	-181.735698	428.536547	433.002049	-123.026493	455.793555	449.091820	-232.036348	329.220965	952.552481	-514.311352	378.701242	881.129900	-505.211740	408.195543	893.685931	-487.060818	383.891945	792.800093	-498.925608	406.833723	696.342946	-475.828057	393.849874	670.189467	-373.688294	354.090852	604.652644	-499.921514	321.171683	526.444672	-485.429685	251.804835	468.676460	-493.793341	333.765265	519.140818	-446.691410	173.188764	386.200826	-484.520521	186.178359	370.879683	-406.408617	97.839481	394.864487	-444.022332	261.996701	158.407815	-435.479744	182.011041	226.048694	-500.248726	-125.302788	872.601784	-306.045227	37.333328	87.483245	-513.844701	33.660760	83.652656	-114.052174	
505	2.5250	646.372913	1271.150580	-72.565282	743.917581	1247.838427	-405.640182	699.897557	1292.222382	-244.112446	613.823430	1179.157263	-247.046772	561.584961	1004.754243	-62.683572	722.524378	866.649157	-110.696952	626.354806	1034.515296	-570.256636	723.501404	846.662763	-501.902612	171.877842	1216.991528	-378.656599	322.575545	1154.325321	-489.222892	260.810883	1206.737744	-207.374796	349.087915	1113.824467	-447.936607	310.712137	1176.499272	-235.366222	184.902933	1250.892300	-343.054176	214.181778	1238.908477	-422.243526	225.165780	1133.739615	-165.369827	254.769678	1067.841387	-516.596093	305.285945	1085.344710	-152.060374	382.884342	1043.860740	-148.272392	429.996986	978.241936	-119.069370	405.043947	1062.900186	-172.726556	515.360217	852.686345	-142.792633	512.551157	833.742044	-252.986477	484.546975	742.188200	-126.432352	457.674959	657.275557	-147.081439	401.430247	594.946112	-142.750323	471.444913	654.953350	-184.637274	330.702588	497.403882	-149.227008	339.056939	515.719612	-230.218222	540.699645	444.278532	-181.740371	431.774642	427.143963	-122.844546	458.950241	443.441612	-231.849517	332.336981	952.976343	-514.404049	382.420821	882.098380	-504.529857	411.744941	895.034184	-486.508641	388.557070	793.895228	-497.885400	411.766028	697.290834	-475.166841	397.823889	671.515156	-372.911094	357.638651	606.161877	-499.022919	323.317977	528.678594	-484.636963	252.791466	472.207304	-493.068833	335.313879	520.899067	-445.743342	172.339389	391.531497	-484.101019	184.926899	375.940450	-405.965165	96.994846	401.157551	-443.738336	257.933798	162.504399	-435.401714	179.013077	231.321615	-500.011960	-125.278770	872.613224	-305.952995	37.365468	87.505319	-513.849393	33.676208	83.667269	-113.991905	
